<?xml version="1.0" encoding="utf-8"?><svg xmlns="http://www.w3.org/2000/svg" width="248" height="45" preserveAspectRatio="xMidYMid" xmlns:xlink="http://www.w3.org/1999/xlink" style="margin-right:-2px;display:block;background-repeat-y:initial;background-repeat-x:initial;background-color:rgb(255, 255, 255);animation-play-state:paused" ><style type="text/css" style="animation-play-state:paused" >text {
    text-anchor: middle; font-size: 34px; opacity: 0;
  }</style>


<g style="transform-origin:124px 22.5px;transform:matrix(1, 0, 0, 1, 0, 0);animation-play-state:paused" ><g transform="translate(124,22.5)" style="transform:matrix(1, 0, 0, 1, 124, 22.5);animation-play-state:paused" ><g transform="translate(0,0)" style="transform:matrix(1, 0, 0, 1, 0, 0);animation-play-state:paused" ><g class="path" style="transform-origin:-107.725px -2.90412px;animation-timing-function:linear;animation-play-state:paused;animation-name:static-5aa5af30-d126-4183-b86e-90f98a15c799;animation-iteration-count:infinite;animation-fill-mode:forwards;animation-duration:1s;animation-delay:-0.605s" ><path d="M5.00-11.93L5.00-11.93L5.00-11.93Q5.00-9.79 5.56-8.04L5.56-8.04L5.56-8.04Q6.12-6.29 7.12-5.03L7.12-5.03L7.12-5.03Q8.13-3.77 9.52-3.09L9.52-3.09L9.52-3.09Q10.91-2.41 12.58-2.41L12.58-2.41L12.58-2.41Q14.25-2.41 15.47-2.81L15.47-2.81L15.47-2.81Q16.69-3.20 17.85-3.88L17.85-3.88L18.84-1.19L18.84-1.19Q17.58-0.51 15.96-0.05L15.96-0.05L15.96-0.05Q14.35 0.41 12.21 0.41L12.21 0.41L12.21 0.41Q9.86 0.41 7.94-0.44L7.94-0.44L7.94-0.44Q6.02-1.29 4.62-2.87L4.62-2.87L4.62-2.87Q3.23-4.45 2.47-6.72L2.47-6.72L2.47-6.72Q1.70-8.98 1.70-11.80L1.70-11.80L1.70-11.80Q1.70-14.52 2.47-16.80L2.47-16.80L2.47-16.80Q3.23-19.07 4.66-20.72L4.66-20.72L4.66-20.72Q6.09-22.37 8.11-23.29L8.11-23.29L8.11-23.29Q10.13-24.21 12.61-24.21L12.61-24.21L12.61-24.21Q14.35-24.21 15.73-23.89L15.73-23.89L15.73-23.89Q17.10-23.56 18.33-22.98L18.33-22.98L17.34-20.26L17.34-20.26Q16.29-20.77 15.18-21.08L15.18-21.08L15.18-21.08Q14.08-21.39 12.58-21.39L12.58-21.39L12.58-21.39Q10.95-21.39 9.55-20.76L9.55-20.76L9.55-20.76Q8.16-20.13 7.14-18.90L7.14-18.90L7.14-18.90Q6.12-17.68 5.56-15.93L5.56-15.93L5.56-15.93Q5.00-14.18 5.00-11.93" fill="#51cacc" stroke="none" stroke-width="none" transform="translate(-117.99503231048584,8.995877566337585)" style="transform:matrix(1, 0, 0, 1, -117.995, 8.99588);fill:rgb(81, 202, 204);animation-play-state:paused" ></path></g>
<g class="path" style="transform-origin:-88.65px 0.155877px;animation-timing-function:linear;animation-play-state:paused;animation-name:static-5aa5af30-d126-4183-b86e-90f98a15c799;animation-iteration-count:infinite;animation-fill-mode:forwards;animation-duration:1s;animation-delay:-0.55s" ><path d="M35.02-8.84L35.02-8.84L35.02-8.84Q35.02-10.17 34.59-11.36L34.59-11.36L34.59-11.36Q34.17-12.55 33.41-13.43L33.41-13.43L33.41-13.43Q32.64-14.31 31.60-14.84L31.60-14.84L31.60-14.84Q30.57-15.37 29.34-15.37L29.34-15.37L29.34-15.37Q26.66-15.37 25.16-13.60L25.16-13.60L25.16-13.60Q23.66-11.83 23.66-8.91L23.66-8.91L23.66-8.91Q23.66-7.58 24.09-6.38L24.09-6.38L24.09-6.38Q24.51-5.17 25.28-4.27L25.28-4.27L25.28-4.27Q26.04-3.37 27.08-2.84L27.08-2.84L27.08-2.84Q28.12-2.31 29.34-2.31L29.34-2.31L29.34-2.31Q30.67-2.31 31.72-2.79L31.72-2.79L31.72-2.79Q32.78-3.26 33.51-4.13L33.51-4.13L33.51-4.13Q34.24-5.00 34.63-6.19L34.63-6.19L34.63-6.19Q35.02-7.38 35.02-8.84zM20.54-8.84L20.54-8.84L20.54-8.84Q20.54-10.98 21.22-12.70L21.22-12.70L21.22-12.70Q21.90-14.42 23.07-15.61L23.07-15.61L23.07-15.61Q24.24-16.80 25.86-17.44L25.86-17.44L25.86-17.44Q27.47-18.09 29.34-18.09L29.34-18.09L29.34-18.09Q31.18-18.09 32.79-17.44L32.79-17.44L32.79-17.44Q34.41-16.80 35.60-15.61L35.60-15.61L35.60-15.61Q36.79-14.42 37.47-12.72L37.47-12.72L37.47-12.72Q38.15-11.02 38.15-8.91L38.15-8.91L38.15-8.91Q38.15-6.80 37.48-5.08L37.48-5.08L37.48-5.08Q36.82-3.37 35.63-2.14L35.63-2.14L35.63-2.14Q34.44-0.92 32.83-0.26L32.83-0.26L32.83-0.26Q31.21 0.41 29.34 0.41L29.34 0.41L29.34 0.41Q27.44 0.41 25.82-0.27L25.82-0.27L25.82-0.27Q24.21-0.95 23.04-2.18L23.04-2.18L23.04-2.18Q21.86-3.40 21.20-5.10L21.20-5.10L21.20-5.10Q20.54-6.80 20.54-8.84" fill="#51cacc" stroke="none" stroke-width="none" transform="translate(-117.99503231048584,8.995877566337585)" style="transform:matrix(1, 0, 0, 1, -117.995, 8.99588);fill:rgb(157, 248, 113);animation-play-state:paused" ></path></g>
<g class="path" style="transform-origin:-67.98px -3.37912px;animation-timing-function:linear;animation-play-state:paused;animation-name:static-5aa5af30-d126-4183-b86e-90f98a15c799;animation-iteration-count:infinite;animation-fill-mode:forwards;animation-duration:1s;animation-delay:-0.495s" ><path d="M48.93 0.41L48.93 0.41L48.93 0.41Q47.29 0.41 45.85-0.24L45.85-0.24L45.85-0.24Q44.40-0.88 43.33-2.07L43.33-2.07L43.33-2.07Q42.26-3.26 41.65-4.95L41.65-4.95L41.65-4.95Q41.04-6.63 41.04-8.74L41.04-8.74L41.04-8.74Q41.04-10.74 41.67-12.46L41.67-12.46L41.67-12.46Q42.30-14.18 43.37-15.42L43.37-15.42L43.37-15.42Q44.44-16.66 45.87-17.37L45.87-17.37L45.87-17.37Q47.29-18.09 48.89-18.09L48.89-18.09L48.89-18.09Q50.66-18.09 51.94-17.37L51.94-17.37L51.94-17.37Q53.21-16.66 53.92-15.91L53.92-15.91L53.92-25.16L56.98-25.16L56.98-4.28L56.98-4.28Q56.98-2.99 57.61-2.60L57.61-2.60L57.61-2.60Q58.24-2.21 58.99-2.21L58.99-2.21L58.34 0.17L58.34 0.17Q55.11 0.17 54.40-2.41L54.40-2.41L54.40-2.41Q53.62-1.33 52.29-0.46L52.29-0.46L52.29-0.46Q50.97 0.41 48.93 0.41zM49.61-2.31L49.61-2.31L49.61-2.31Q50.86-2.31 52.00-2.91L52.00-2.91L52.00-2.91Q53.14-3.50 53.92-4.45L53.92-4.45L53.92-13.23L53.92-13.23Q53.28-14.04 52.14-14.74L52.14-14.74L52.14-14.74Q51-15.44 49.57-15.44L49.57-15.44L49.57-15.44Q48.35-15.44 47.35-14.93L47.35-14.93L47.35-14.93Q46.34-14.42 45.63-13.53L45.63-13.53L45.63-13.53Q44.91-12.65 44.54-11.44L44.54-11.44L44.54-11.44Q44.17-10.23 44.17-8.84L44.17-8.84L44.17-8.84Q44.17-7.41 44.57-6.22L44.57-6.22L44.57-6.22Q44.98-5.03 45.71-4.17L45.71-4.17L45.71-4.17Q46.44-3.30 47.45-2.81L47.45-2.81L47.45-2.81Q48.45-2.31 49.61-2.31" fill="#51cacc" stroke="none" stroke-width="none" transform="translate(-117.99503231048584,8.995877566337585)" style="transform:matrix(1, 0, 0, 1, -117.995, 8.99588);fill:rgb(224, 255, 119);animation-play-state:paused" ></path></g>
<g class="path" style="transform-origin:-48.65px 0.155877px;animation-timing-function:linear;animation-play-state:paused;animation-name:static-5aa5af30-d126-4183-b86e-90f98a15c799;animation-iteration-count:infinite;animation-fill-mode:forwards;animation-duration:1s;animation-delay:-0.44s" ><path d="M77.04-7.58L64.67-7.58L64.67-7.58Q64.97-5.10 66.40-3.71L66.40-3.71L66.40-3.71Q67.83-2.31 70.18-2.31L70.18-2.31L70.18-2.31Q71.71-2.31 72.93-2.64L72.93-2.64L72.93-2.64Q74.15-2.96 75.28-3.47L75.28-3.47L75.99-0.85L75.99-0.85Q74.77-0.27 73.24 0.07L73.24 0.07L73.24 0.07Q71.71 0.41 69.80 0.41L69.80 0.41L69.80 0.41Q67.90 0.41 66.37-0.22L66.37-0.22L66.37-0.22Q64.84-0.85 63.77-2.02L63.77-2.02L63.77-2.02Q62.70-3.20 62.12-4.91L62.12-4.91L62.12-4.91Q61.54-6.63 61.54-8.84L61.54-8.84L61.54-8.84Q61.54-10.81 62.12-12.51L62.12-12.51L62.12-12.51Q62.70-14.21 63.75-15.45L63.75-15.45L63.75-15.45Q64.80-16.69 66.27-17.39L66.27-17.39L66.27-17.39Q67.73-18.09 69.53-18.09L69.53-18.09L69.53-18.09Q71.43-18.09 72.86-17.44L72.86-17.44L72.86-17.44Q74.29-16.80 75.24-15.67L75.24-15.67L75.24-15.67Q76.19-14.55 76.67-13.06L76.67-13.06L76.67-13.06Q77.15-11.56 77.15-9.89L77.15-9.89L77.15-9.89Q77.15-8.70 77.04-7.58L77.04-7.58zM69.46-15.44L69.46-15.44L69.46-15.44Q67.46-15.44 66.18-14.08L66.18-14.08L66.18-14.08Q64.91-12.72 64.63-10.06L64.63-10.06L74.32-10.06L74.32-10.06Q74.32-12.65 73.03-14.04L73.03-14.04L73.03-14.04Q71.74-15.44 69.46-15.44" fill="#51cacc" stroke="none" stroke-width="none" transform="translate(-117.99503231048584,8.995877566337585)" style="transform:matrix(1, 0, 0, 1, -117.995, 8.99588);fill:rgb(222, 157, 214);animation-play-state:paused" ></path></g>
<g class="path" style="transform-origin:-15.38px 0.0708771px;animation-timing-function:linear;animation-play-state:paused;animation-name:static-5aa5af30-d126-4183-b86e-90f98a15c799;animation-iteration-count:infinite;animation-fill-mode:forwards;animation-duration:1s;animation-delay:-0.385s" ><path d="M108.43-3.47L112.95-17.85L115.67-16.86L110.06 0L106.69 0L102.61-13.16L98.50 0L95.13 0L89.56-16.86L92.38-17.85L96.93-3.47L101.08-16.42L104.38-16.42L108.43-3.47" fill="#51cacc" stroke="none" stroke-width="none" transform="translate(-117.99503231048584,8.995877566337585)" style="transform:matrix(1, 0, 0, 1, -117.995, 8.99588);fill:rgb(255, 112, 142);animation-play-state:paused" ></path></g>
<g class="path" style="transform-origin:2.77497px 0.155877px;animation-timing-function:linear;animation-play-state:paused;animation-name:static-5aa5af30-d126-4183-b86e-90f98a15c799;animation-iteration-count:infinite;animation-fill-mode:forwards;animation-duration:1s;animation-delay:-0.33s" ><path d="M122.30-17.68L122.30 0L119.24 0L119.24-17.68L122.30-17.68" fill="#51cacc" stroke="none" stroke-width="none" transform="translate(-117.99503231048584,8.995877566337585)" style="transform:matrix(1, 0, 0, 1, -117.995, 8.99588);fill:rgb(81, 202, 204);animation-play-state:paused" ></path></g>
<g class="path" style="transform-origin:2.77497px -13.8541px;animation-timing-function:linear;animation-play-state:paused;animation-name:static-5aa5af30-d126-4183-b86e-90f98a15c799;animation-iteration-count:infinite;animation-fill-mode:forwards;animation-duration:1s;animation-delay:-0.275s" ><path d="M120.77-20.71L120.77-20.71L120.77-20.71Q119.88-20.71 119.25-21.34L119.25-21.34L119.25-21.34Q118.63-21.96 118.63-22.85L118.63-22.85L118.63-22.85Q118.63-23.83 119.20-24.41L119.20-24.41L119.20-24.41Q119.78-24.99 120.77-24.99L120.77-24.99L120.77-24.99Q121.65-24.99 122.28-24.36L122.28-24.36L122.28-24.36Q122.91-23.73 122.91-22.85L122.91-22.85L122.91-22.85Q122.91-21.86 122.33-21.28L122.33-21.28L122.33-21.28Q121.75-20.71 120.77-20.71" fill="#51cacc" stroke="none" stroke-width="none" transform="translate(-117.99503231048584,8.995877566337585)" style="transform:matrix(1, 0, 0, 1, -117.995, 8.99588);fill:rgb(157, 248, 113);animation-play-state:paused" ></path></g>
<g class="path" style="transform-origin:13.775px -2.10412px;animation-timing-function:linear;animation-play-state:paused;animation-name:static-5aa5af30-d126-4183-b86e-90f98a15c799;animation-iteration-count:infinite;animation-fill-mode:forwards;animation-duration:1s;animation-delay:-0.22s" ><path d="M128.49-17.03L129.13-22.61L131.48-22.61L131.48-17.03L136.37-17.03L136.37-14.38L131.48-14.38L131.48-5.85L131.48-5.85Q131.48-4.86 131.70-4.18L131.70-4.18L131.70-4.18Q131.92-3.50 132.29-3.09L132.29-3.09L132.29-3.09Q132.67-2.69 133.19-2.50L133.19-2.50L133.19-2.50Q133.72-2.31 134.30-2.31L134.30-2.31L134.30-2.31Q135.15-2.31 135.90-2.58L135.90-2.58L135.90-2.58Q136.65-2.86 137.33-3.23L137.33-3.23L138.18-0.78L138.18-0.78Q137.50-0.37 136.34 0.02L136.34 0.02L136.34 0.02Q135.18 0.41 133.93 0.41L133.93 0.41L133.93 0.41Q131.38 0.41 129.90-1.26L129.90-1.26L129.90-1.26Q128.42-2.92 128.42-6.09L128.42-6.09L128.42-14.38L125.36-14.38L125.36-17.03L128.49-17.03" fill="#51cacc" stroke="none" stroke-width="none" transform="translate(-117.99503231048584,8.995877566337585)" style="transform:matrix(1, 0, 0, 1, -117.995, 8.99588);fill:rgb(224, 255, 119);animation-play-state:paused" ></path></g>
<g class="path" style="transform-origin:30.67px -3.58412px;animation-timing-function:linear;animation-play-state:paused;animation-name:static-5aa5af30-d126-4183-b86e-90f98a15c799;animation-iteration-count:infinite;animation-fill-mode:forwards;animation-duration:1s;animation-delay:-0.165s" ><path d="M144.30-25.16L144.30-14.86L144.30-14.86Q145.25-16.25 146.69-17.17L146.69-17.17L146.69-17.17Q148.14-18.09 150.14-18.09L150.14-18.09L150.14-18.09Q153.14-18.09 154.61-16.29L154.61-16.29L154.61-16.29Q156.09-14.48 156.09-11.53L156.09-11.53L156.09 0L153.03 0L153.03-11.19L153.03-11.19Q153.03-13.12 152.17-14.26L152.17-14.26L152.17-14.26Q151.30-15.40 149.67-15.40L149.67-15.40L149.67-15.40Q148.89-15.40 148.12-15.11L148.12-15.11L148.12-15.11Q147.36-14.82 146.68-14.31L146.68-14.31L146.68-14.31Q146.00-13.80 145.38-13.12L145.38-13.12L145.38-13.12Q144.77-12.44 144.30-11.70L144.30-11.70L144.30 0L141.24 0L141.24-25.16L144.30-25.16" fill="#51cacc" stroke="none" stroke-width="none" transform="translate(-117.99503231048584,8.995877566337585)" style="transform:matrix(1, 0, 0, 1, -117.995, 8.99588);fill:rgb(222, 157, 214);animation-play-state:paused" ></path></g>
<g class="path" style="transform-origin:60.165px -2.90412px;animation-timing-function:linear;animation-play-state:paused;animation-name:static-5aa5af30-d126-4183-b86e-90f98a15c799;animation-iteration-count:infinite;animation-fill-mode:forwards;animation-duration:1s;animation-delay:-0.11s" ><path d="M169.86-2.01L171.50-4.73L171.50-4.73Q172.72-3.71 174.25-3.06L174.25-3.06L174.25-3.06Q175.78-2.41 177.82-2.41L177.82-2.41L177.82-2.41Q180.27-2.41 181.70-3.43L181.70-3.43L181.70-3.43Q183.12-4.45 183.12-6.19L183.12-6.19L183.12-6.19Q183.12-6.90 182.92-7.51L182.92-7.51L182.92-7.51Q182.72-8.13 182.12-8.69L182.12-8.69L182.12-8.69Q181.53-9.25 180.45-9.81L180.45-9.81L180.45-9.81Q179.38-10.37 177.68-11.02L177.68-11.02L177.68-11.02Q175.85-11.73 174.57-12.43L174.57-12.43L174.57-12.43Q173.30-13.12 172.52-13.96L172.52-13.96L172.52-13.96Q171.73-14.79 171.39-15.79L171.39-15.79L171.39-15.79Q171.05-16.80 171.05-18.09L171.05-18.09L171.05-18.09Q171.05-19.35 171.58-20.47L171.58-20.47L171.58-20.47Q172.11-21.59 173.14-22.42L173.14-22.42L173.14-22.42Q174.18-23.26 175.69-23.73L175.69-23.73L175.69-23.73Q177.21-24.21 179.15-24.21L179.15-24.21L179.15-24.21Q181.25-24.21 182.92-23.78L182.92-23.78L182.92-23.78Q184.59-23.36 186.22-22.58L186.22-22.58L185.03-19.82L185.03-19.82Q183.87-20.50 182.32-20.96L182.32-20.96L182.32-20.96Q180.78-21.42 179.08-21.42L179.08-21.42L179.08-21.42Q176.83-21.42 175.54-20.55L175.54-20.55L175.54-20.55Q174.25-19.69 174.25-18.26L174.25-18.26L174.25-18.26Q174.25-17.58 174.44-17.05L174.44-17.05L174.44-17.05Q174.62-16.52 175.19-16.03L175.19-16.03L175.19-16.03Q175.75-15.54 176.75-15.03L176.75-15.03L176.75-15.03Q177.75-14.52 179.42-13.91L179.42-13.91L179.42-13.91Q181.39-13.16 182.75-12.38L182.75-12.38L182.75-12.38Q184.11-11.59 184.93-10.71L184.93-10.71L184.93-10.71Q185.74-9.83 186.10-8.81L186.10-8.81L186.10-8.81Q186.46-7.79 186.46-6.56L186.46-6.56L186.46-6.56Q186.46-4.90 185.81-3.60L185.81-3.60L185.81-3.60Q185.16-2.31 184.03-1.41L184.03-1.41L184.03-1.41Q182.89-0.51 181.29-0.05L181.29-0.05L181.29-0.05Q179.69 0.41 177.82 0.41L177.82 0.41L177.82 0.41Q175.34 0.41 173.30-0.26L173.30-0.26L173.30-0.26Q171.26-0.92 169.86-2.01L169.86-2.01" fill="#51cacc" stroke="none" stroke-width="none" transform="translate(-117.99503231048584,8.995877566337585)" style="transform:matrix(1, 0, 0, 1, -117.995, 8.99588);fill:rgb(255, 112, 142);animation-play-state:paused" ></path></g>
<g class="path" style="transform-origin:80.735px 0.155877px;animation-timing-function:linear;animation-play-state:paused;animation-name:static-5aa5af30-d126-4183-b86e-90f98a15c799;animation-iteration-count:infinite;animation-fill-mode:forwards;animation-duration:1s;animation-delay:-0.055s" ><path d="M189.69-8.74L189.69-8.74L189.69-8.74Q189.69-10.71 190.30-12.43L190.30-12.43L190.30-12.43Q190.91-14.14 192.02-15.40L192.02-15.40L192.02-15.40Q193.12-16.66 194.67-17.37L194.67-17.37L194.67-17.37Q196.21-18.09 198.05-18.09L198.05-18.09L198.05-18.09Q199.58-18.09 200.82-17.56L200.82-17.56L200.82-17.56Q202.06-17.03 202.98-16.25L202.98-16.25L202.98-17.68L205.77-17.68L205.77-4.28L205.77-4.28Q205.77-2.99 206.40-2.60L206.40-2.60L206.40-2.60Q207.03-2.21 207.77-2.21L207.77-2.21L207.13 0.17L207.13 0.17Q203.86 0.17 203.18-2.48L203.18-2.48L203.18-2.48Q202.78-1.94 202.25-1.41L202.25-1.41L202.25-1.41Q201.72-0.88 201.04-0.48L201.04-0.48L201.04-0.48Q200.36-0.07 199.51 0.17L199.51 0.17L199.51 0.17Q198.66 0.41 197.64 0.41L197.64 0.41L197.64 0.41Q195.98 0.41 194.53-0.24L194.53-0.24L194.53-0.24Q193.09-0.88 192.02-2.07L192.02-2.07L192.02-2.07Q190.94-3.26 190.31-4.95L190.31-4.95L190.31-4.95Q189.69-6.63 189.69-8.74zM198.32-2.31L198.32-2.31L198.32-2.31Q199.61-2.31 200.77-2.92L200.77-2.92L200.77-2.92Q201.93-3.54 202.71-4.52L202.71-4.52L202.71-14.01L202.71-14.01Q201.79-14.65 200.69-15.05L200.69-15.05L200.69-15.05Q199.58-15.44 198.36-15.44L198.36-15.44L198.36-15.44Q197.13-15.44 196.11-14.96L196.11-14.96L196.11-14.96Q195.09-14.48 194.36-13.62L194.36-13.62L194.36-13.62Q193.63-12.75 193.22-11.53L193.22-11.53L193.22-11.53Q192.81-10.30 192.81-8.84L192.81-8.84L192.81-8.84Q192.81-7.41 193.22-6.21L193.22-6.21L193.22-6.21Q193.63-5.00 194.38-4.13L194.38-4.13L194.38-4.13Q195.13-3.26 196.13-2.79L196.13-2.79L196.13-2.79Q197.13-2.31 198.32-2.31" fill="#51cacc" stroke="none" stroke-width="none" transform="translate(-117.99503231048584,8.995877566337585)" style="transform:matrix(1, 0, 0, 1, -117.995, 8.99588);fill:rgb(81, 202, 204);animation-play-state:paused" ></path></g>
<g class="path" style="transform-origin:106.775px -0.0491228px;animation-timing-function:linear;animation-play-state:paused;animation-name:static-5aa5af30-d126-4183-b86e-90f98a15c799;animation-iteration-count:infinite;animation-fill-mode:forwards;animation-duration:1s" ><path d="M214.81-17.68L214.81-14.72L214.81-14.72Q215.76-16.15 217.21-17.12L217.21-17.12L217.21-17.12Q218.65-18.09 220.56-18.09L220.56-18.09L220.56-18.09Q222.67-18.09 223.99-17.09L223.99-17.09L223.99-17.09Q225.32-16.08 225.90-14.35L225.90-14.35L225.90-14.35Q226.95-15.91 228.40-17L228.40-17L228.40-17Q229.84-18.09 231.98-18.09L231.98-18.09L231.98-18.09Q233.41-18.09 234.48-17.61L234.48-17.61L234.48-17.61Q235.55-17.14 236.27-16.27L236.27-16.27L236.27-16.27Q236.98-15.40 237.34-14.20L237.34-14.20L237.34-14.20Q237.69-12.99 237.69-11.53L237.69-11.53L237.69 0L234.63 0L234.63-11.29L234.63-11.29Q234.63-13.12 233.78-14.26L233.78-14.26L233.78-14.26Q232.93-15.40 231.44-15.40L231.44-15.40L231.44-15.40Q230.66-15.40 229.94-15.10L229.94-15.10L229.94-15.10Q229.23-14.79 228.58-14.26L228.58-14.26L228.58-14.26Q227.94-13.74 227.36-13.04L227.36-13.04L227.36-13.04Q226.78-12.34 226.30-11.59L226.30-11.59L226.30 0L223.24 0L223.24-11.29L223.24-11.29Q223.24-13.12 222.39-14.26L222.39-14.26L222.39-14.26Q221.54-15.40 220.05-15.40L220.05-15.40L220.05-15.40Q219.30-15.40 218.59-15.11L218.59-15.11L218.59-15.11Q217.87-14.82 217.21-14.31L217.21-14.31L217.21-14.31Q216.55-13.80 215.97-13.12L215.97-13.12L215.97-13.12Q215.39-12.44 214.91-11.70L214.91-11.70L214.91 0L211.85 0L211.85-17.68L214.81-17.68" fill="#51cacc" stroke="none" stroke-width="none" transform="translate(-117.99503231048584,8.995877566337585)" style="transform:matrix(1, 0, 0, 1, -117.995, 8.99588);fill:rgb(157, 248, 113);animation-play-state:paused" ></path></g></g></g></g></svg>