<?xml version="1.0" encoding="utf-8"?><svg xmlns="http://www.w3.org/2000/svg" width="280" height="58" preserveAspectRatio="xMidYMid" xmlns:xlink="http://www.w3.org/1999/xlink" style="margin-right:-2px;display:block;background-repeat-y:initial;background-repeat-x:initial;animation-play-state:paused" ><style type="text/css" style="animation-play-state:paused" >text {
    text-anchor: middle; font-size: 38px; opacity: 0;
  }</style>


<g style="transform-origin:140px 29px;transform:matrix(1.26667, 0, 0, 1.26667, 0, 0);animation-play-state:paused" ><g transform="translate(140,29)" style="transform:matrix(1, 0, 0, 1, 140, 29);animation-play-state:paused" ><g transform="translate(0,0)" style="transform:matrix(1, 0, 0, 1, 0, 0);animation-play-state:paused" ><g class="path" style="transform-origin:-96.93px -2.56275px;animation-timing-function:linear;animation-play-state:paused;animation-name:static-f69b27c0-2a74-4cb6-8054-f6402bbf1c77;animation-iteration-count:infinite;animation-fill-mode:forwards;animation-duration:1s;animation-delay:-0.605s" ><path d="M4.41-10.53L4.41-10.53L4.41-10.53Q4.41-8.64 4.91-7.09L4.91-7.09L4.91-7.09Q5.40-5.55 6.29-4.44L6.29-4.44L6.29-4.44Q7.17-3.33 8.40-2.73L8.40-2.73L8.40-2.73Q9.63-2.13 11.10-2.13L11.10-2.13L11.10-2.13Q12.57-2.13 13.65-2.48L13.65-2.48L13.65-2.48Q14.73-2.82 15.75-3.42L15.75-3.42L16.62-1.05L16.62-1.05Q15.51-0.45 14.08-0.04L14.08-0.04L14.08-0.04Q12.66 0.36 10.77 0.36L10.77 0.36L10.77 0.36Q8.70 0.36 7.00-0.39L7.00-0.39L7.00-0.39Q5.31-1.14 4.08-2.53L4.08-2.53L4.08-2.53Q2.85-3.93 2.17-5.92L2.17-5.92L2.17-5.92Q1.50-7.92 1.50-10.41L1.50-10.41L1.50-10.41Q1.50-12.81 2.17-14.82L2.17-14.82L2.17-14.82Q2.85-16.83 4.11-18.29L4.11-18.29L4.11-18.29Q5.37-19.74 7.15-20.55L7.15-20.55L7.15-20.55Q8.94-21.36 11.13-21.36L11.13-21.36L11.13-21.36Q12.66-21.36 13.88-21.07L13.88-21.07L13.88-21.07Q15.09-20.79 16.17-20.28L16.17-20.28L15.30-17.88L15.30-17.88Q14.37-18.33 13.39-18.60L13.39-18.60L13.39-18.60Q12.42-18.87 11.10-18.87L11.10-18.87L11.10-18.87Q9.66-18.87 8.43-18.31L8.43-18.31L8.43-18.31Q7.20-17.76 6.30-16.68L6.30-16.68L6.30-16.68Q5.40-15.60 4.91-14.05L4.91-14.05L4.91-14.05Q4.41-12.51 4.41-10.53" fill="#353535" stroke="none" stroke-width="none" transform="translate(-105.98996639251709,7.937252215147018)" style="transform:matrix(1, 0, 0, 1, -105.99, 7.93725);fill:rgb(53, 53, 53);animation-play-state:paused" ></path></g>
<g class="path" style="transform-origin:-80.1px 0.137252px;animation-timing-function:linear;animation-play-state:paused;animation-name:static-f69b27c0-2a74-4cb6-8054-f6402bbf1c77;animation-iteration-count:infinite;animation-fill-mode:forwards;animation-duration:1s;animation-delay:-0.55s" ><path d="M30.90-7.80L30.90-7.80L30.90-7.80Q30.90-8.97 30.52-10.02L30.52-10.02L30.52-10.02Q30.15-11.07 29.48-11.85L29.48-11.85L29.48-11.85Q28.80-12.63 27.89-13.09L27.89-13.09L27.89-13.09Q26.97-13.56 25.89-13.56L25.89-13.56L25.89-13.56Q23.52-13.56 22.20-12L22.20-12L22.20-12Q20.88-10.44 20.88-7.86L20.88-7.86L20.88-7.86Q20.88-6.69 21.26-5.63L21.26-5.63L21.26-5.63Q21.63-4.56 22.30-3.76L22.30-3.76L22.30-3.76Q22.98-2.97 23.90-2.50L23.90-2.50L23.90-2.50Q24.81-2.04 25.89-2.04L25.89-2.04L25.89-2.04Q27.06-2.04 27.99-2.46L27.99-2.46L27.99-2.46Q28.92-2.88 29.57-3.65L29.57-3.65L29.57-3.65Q30.21-4.41 30.55-5.46L30.55-5.46L30.55-5.46Q30.90-6.51 30.90-7.80zM18.12-7.80L18.12-7.80L18.12-7.80Q18.12-9.69 18.72-11.21L18.72-11.21L18.72-11.21Q19.32-12.72 20.36-13.77L20.36-13.77L20.36-13.77Q21.39-14.82 22.82-15.39L22.82-15.39L22.82-15.39Q24.24-15.96 25.89-15.96L25.89-15.96L25.89-15.96Q27.51-15.96 28.94-15.39L28.94-15.39L28.94-15.39Q30.36-14.82 31.41-13.77L31.41-13.77L31.41-13.77Q32.46-12.72 33.06-11.22L33.06-11.22L33.06-11.22Q33.66-9.72 33.66-7.86L33.66-7.86L33.66-7.86Q33.66-6 33.08-4.48L33.08-4.48L33.08-4.48Q32.49-2.97 31.44-1.89L31.44-1.89L31.44-1.89Q30.39-0.81 28.97-0.22L28.97-0.22L28.97-0.22Q27.54 0.36 25.89 0.36L25.89 0.36L25.89 0.36Q24.21 0.36 22.79-0.24L22.79-0.24L22.79-0.24Q21.36-0.84 20.33-1.92L20.33-1.92L20.33-1.92Q19.29-3 18.71-4.50L18.71-4.50L18.71-4.50Q18.12-6 18.12-7.80" fill="#353535" stroke="none" stroke-width="none" transform="translate(-105.98996639251709,7.937252215147018)" style="transform:matrix(1, 0, 0, 1, -105.99, 7.93725);fill:rgb(53, 53, 53);animation-play-state:paused" ></path></g>
<g class="path" style="transform-origin:-61.86px -2.98275px;animation-timing-function:linear;animation-play-state:paused;animation-name:static-f69b27c0-2a74-4cb6-8054-f6402bbf1c77;animation-iteration-count:infinite;animation-fill-mode:forwards;animation-duration:1s;animation-delay:-0.495s" ><path d="M43.17 0.36L43.17 0.36L43.17 0.36Q41.73 0.36 40.45-0.21L40.45-0.21L40.45-0.21Q39.18-0.78 38.23-1.83L38.23-1.83L38.23-1.83Q37.29-2.88 36.75-4.37L36.75-4.37L36.75-4.37Q36.21-5.85 36.21-7.71L36.21-7.71L36.21-7.71Q36.21-9.48 36.77-10.99L36.77-10.99L36.77-10.99Q37.32-12.51 38.27-13.60L38.27-13.60L38.27-13.60Q39.21-14.70 40.47-15.33L40.47-15.33L40.47-15.33Q41.73-15.96 43.14-15.96L43.14-15.96L43.14-15.96Q44.70-15.96 45.83-15.33L45.83-15.33L45.83-15.33Q46.95-14.70 47.58-14.04L47.58-14.04L47.58-22.20L50.28-22.20L50.28-3.78L50.28-3.78Q50.28-2.64 50.84-2.29L50.84-2.29L50.84-2.29Q51.39-1.95 52.05-1.95L52.05-1.95L51.48 0.15L51.48 0.15Q48.63 0.15 48-2.13L48-2.13L48-2.13Q47.31-1.17 46.14-0.40L46.14-0.40L46.14-0.40Q44.97 0.36 43.17 0.36zM43.77-2.04L43.77-2.04L43.77-2.04Q44.88-2.04 45.88-2.56L45.88-2.56L45.88-2.56Q46.89-3.09 47.58-3.93L47.58-3.93L47.58-11.67L47.58-11.67Q47.01-12.39 46.00-13.00L46.00-13.00L46.00-13.00Q45-13.62 43.74-13.62L43.74-13.62L43.74-13.62Q42.66-13.62 41.77-13.17L41.77-13.17L41.77-13.17Q40.89-12.72 40.26-11.94L40.26-11.94L40.26-11.94Q39.63-11.16 39.30-10.09L39.30-10.09L39.30-10.09Q38.97-9.03 38.97-7.80L38.97-7.80L38.97-7.80Q38.97-6.54 39.33-5.49L39.33-5.49L39.33-5.49Q39.69-4.44 40.34-3.67L40.34-3.67L40.34-3.67Q40.98-2.91 41.87-2.48L41.87-2.48L41.87-2.48Q42.75-2.04 43.77-2.04" fill="#353535" stroke="none" stroke-width="none" transform="translate(-105.98996639251709,7.937252215147018)" style="transform:matrix(1, 0, 0, 1, -105.99, 7.93725);fill:rgb(53, 53, 53);animation-play-state:paused" ></path></g>
<g class="path" style="transform-origin:-44.805px 0.137252px;animation-timing-function:linear;animation-play-state:paused;animation-name:static-f69b27c0-2a74-4cb6-8054-f6402bbf1c77;animation-iteration-count:infinite;animation-fill-mode:forwards;animation-duration:1s;animation-delay:-0.44s" ><path d="M67.98-6.69L57.06-6.69L57.06-6.69Q57.33-4.50 58.59-3.27L58.59-3.27L58.59-3.27Q59.85-2.04 61.92-2.04L61.92-2.04L61.92-2.04Q63.27-2.04 64.35-2.32L64.35-2.32L64.35-2.32Q65.43-2.61 66.42-3.06L66.42-3.06L67.05-0.75L67.05-0.75Q65.97-0.24 64.62 0.06L64.62 0.06L64.62 0.06Q63.27 0.36 61.59 0.36L61.59 0.36L61.59 0.36Q59.91 0.36 58.56-0.20L58.56-0.20L58.56-0.20Q57.21-0.75 56.27-1.78L56.27-1.78L56.27-1.78Q55.32-2.82 54.81-4.33L54.81-4.33L54.81-4.33Q54.30-5.85 54.30-7.80L54.30-7.80L54.30-7.80Q54.30-9.54 54.81-11.04L54.81-11.04L54.81-11.04Q55.32-12.54 56.25-13.63L56.25-13.63L56.25-13.63Q57.18-14.73 58.47-15.34L58.47-15.34L58.47-15.34Q59.76-15.96 61.35-15.96L61.35-15.96L61.35-15.96Q63.03-15.96 64.29-15.39L64.29-15.39L64.29-15.39Q65.55-14.82 66.39-13.83L66.39-13.83L66.39-13.83Q67.23-12.84 67.65-11.52L67.65-11.52L67.65-11.52Q68.07-10.20 68.07-8.73L68.07-8.73L68.07-8.73Q68.07-7.68 67.98-6.69L67.98-6.69zM61.29-13.62L61.29-13.62L61.29-13.62Q59.52-13.62 58.40-12.42L58.40-12.42L58.40-12.42Q57.27-11.22 57.03-8.88L57.03-8.88L65.58-8.88L65.58-8.88Q65.58-11.16 64.44-12.39L64.44-12.39L64.44-12.39Q63.30-13.62 61.29-13.62" fill="#353535" stroke="none" stroke-width="none" transform="translate(-105.98996639251709,7.937252215147018)" style="transform:matrix(1, 0, 0, 1, -105.99, 7.93725);fill:rgb(53, 53, 53);animation-play-state:paused" ></path></g>
<g class="path" style="transform-origin:-13.575px -2.66775px;animation-timing-function:linear;animation-play-state:paused;animation-name:static-f69b27c0-2a74-4cb6-8054-f6402bbf1c77;animation-iteration-count:infinite;animation-fill-mode:forwards;animation-duration:1s;animation-delay:-0.385s" ><path d="M84.42 0L78.72-20.31L81.54-21.21L86.28-3.03L90.75-18.81L94.32-18.81L98.76-3.03L103.47-21.12L106.11-20.31L100.44 0L96.90 0L92.46-15.78L87.96 0L84.42 0" fill="#353535" stroke="none" stroke-width="none" transform="translate(-105.98996639251709,7.937252215147018)" style="transform:matrix(1, 0, 0, 1, -105.99, 7.93725);fill:rgb(53, 53, 53);animation-play-state:paused" ></path></g>
<g class="path" style="transform-origin:4.32003px 0.137252px;animation-timing-function:linear;animation-play-state:paused;animation-name:static-f69b27c0-2a74-4cb6-8054-f6402bbf1c77;animation-iteration-count:infinite;animation-fill-mode:forwards;animation-duration:1s;animation-delay:-0.33s" ><path d="M111.66-15.60L111.66 0L108.96 0L108.96-15.60L111.66-15.60" fill="#353535" stroke="none" stroke-width="none" transform="translate(-105.98996639251709,7.937252215147018)" style="transform:matrix(1, 0, 0, 1, -105.99, 7.93725);fill:rgb(53, 53, 53);animation-play-state:paused" ></path></g>
<g class="path" style="transform-origin:4.32003px -12.2227px;animation-timing-function:linear;animation-play-state:paused;animation-name:static-f69b27c0-2a74-4cb6-8054-f6402bbf1c77;animation-iteration-count:infinite;animation-fill-mode:forwards;animation-duration:1s;animation-delay:-0.275s" ><path d="M110.31-18.27L110.31-18.27L110.31-18.27Q109.53-18.27 108.98-18.82L108.98-18.82L108.98-18.82Q108.42-19.38 108.42-20.16L108.42-20.16L108.42-20.16Q108.42-21.03 108.93-21.54L108.93-21.54L108.93-21.54Q109.44-22.05 110.31-22.05L110.31-22.05L110.31-22.05Q111.09-22.05 111.64-21.49L111.64-21.49L111.64-21.49Q112.20-20.94 112.20-20.16L112.20-20.16L112.20-20.16Q112.20-19.29 111.69-18.78L111.69-18.78L111.69-18.78Q111.18-18.27 110.31-18.27" fill="#353535" stroke="none" stroke-width="none" transform="translate(-105.98996639251709,7.937252215147018)" style="transform:matrix(1, 0, 0, 1, -105.99, 7.93725);fill:rgb(53, 53, 53);animation-play-state:paused" ></path></g>
<g class="path" style="transform-origin:14.025px -1.85775px;animation-timing-function:linear;animation-play-state:paused;animation-name:static-f69b27c0-2a74-4cb6-8054-f6402bbf1c77;animation-iteration-count:infinite;animation-fill-mode:forwards;animation-duration:1s;animation-delay:-0.22s" ><path d="M117.12-15.03L117.69-19.95L119.76-19.95L119.76-15.03L124.08-15.03L124.08-12.69L119.76-12.69L119.76-5.16L119.76-5.16Q119.76-4.29 119.95-3.69L119.95-3.69L119.95-3.69Q120.15-3.09 120.48-2.73L120.48-2.73L120.48-2.73Q120.81-2.37 121.28-2.21L121.28-2.21L121.28-2.21Q121.74-2.04 122.25-2.04L122.25-2.04L122.25-2.04Q123-2.04 123.66-2.28L123.66-2.28L123.66-2.28Q124.32-2.52 124.92-2.85L124.92-2.85L125.67-0.69L125.67-0.69Q125.07-0.33 124.05 0.01L124.05 0.01L124.05 0.01Q123.03 0.36 121.92 0.36L121.92 0.36L121.92 0.36Q119.67 0.36 118.37-1.11L118.37-1.11L118.37-1.11Q117.06-2.58 117.06-5.37L117.06-5.37L117.06-12.69L114.36-12.69L114.36-15.03L117.12-15.03" fill="#353535" stroke="none" stroke-width="none" transform="translate(-105.98996639251709,7.937252215147018)" style="transform:matrix(1, 0, 0, 1, -105.99, 7.93725);fill:rgb(53, 53, 53);animation-play-state:paused" ></path></g>
<g class="path" style="transform-origin:28.935px -3.16275px;animation-timing-function:linear;animation-play-state:paused;animation-name:static-f69b27c0-2a74-4cb6-8054-f6402bbf1c77;animation-iteration-count:infinite;animation-fill-mode:forwards;animation-duration:1s;animation-delay:-0.165s" ><path d="M131.07-22.20L131.07-13.11L131.07-13.11Q131.91-14.34 133.19-15.15L133.19-15.15L133.19-15.15Q134.46-15.96 136.23-15.96L136.23-15.96L136.23-15.96Q138.87-15.96 140.18-14.37L140.18-14.37L140.18-14.37Q141.48-12.78 141.48-10.17L141.48-10.17L141.48 0L138.78 0L138.78-9.87L138.78-9.87Q138.78-11.58 138.01-12.58L138.01-12.58L138.01-12.58Q137.25-13.59 135.81-13.59L135.81-13.59L135.81-13.59Q135.12-13.59 134.44-13.33L134.44-13.33L134.44-13.33Q133.77-13.08 133.17-12.63L133.17-12.63L133.17-12.63Q132.57-12.18 132.03-11.58L132.03-11.58L132.03-11.58Q131.49-10.98 131.07-10.32L131.07-10.32L131.07 0L128.37 0L128.37-22.20L131.07-22.20" fill="#353535" stroke="none" stroke-width="none" transform="translate(-105.98996639251709,7.937252215147018)" style="transform:matrix(1, 0, 0, 1, -105.99, 7.93725);fill:rgb(53, 53, 53);animation-play-state:paused" ></path></g>
<g class="path" style="transform-origin:54.96px -2.56275px;animation-timing-function:linear;animation-play-state:paused;animation-name:static-f69b27c0-2a74-4cb6-8054-f6402bbf1c77;animation-iteration-count:infinite;animation-fill-mode:forwards;animation-duration:1s;animation-delay:-0.11s" ><path d="M153.63-1.77L155.07-4.17L155.07-4.17Q156.15-3.27 157.50-2.70L157.50-2.70L157.50-2.70Q158.85-2.13 160.65-2.13L160.65-2.13L160.65-2.13Q162.81-2.13 164.07-3.03L164.07-3.03L164.07-3.03Q165.33-3.93 165.33-5.46L165.33-5.46L165.33-5.46Q165.33-6.09 165.15-6.63L165.15-6.63L165.15-6.63Q164.97-7.17 164.44-7.67L164.44-7.67L164.44-7.67Q163.92-8.16 162.97-8.65L162.97-8.65L162.97-8.65Q162.03-9.15 160.53-9.72L160.53-9.72L160.53-9.72Q158.91-10.35 157.78-10.96L157.78-10.96L157.78-10.96Q156.66-11.58 155.97-12.31L155.97-12.31L155.97-12.31Q155.28-13.05 154.98-13.93L154.98-13.93L154.98-13.93Q154.68-14.82 154.68-15.96L154.68-15.96L154.68-15.96Q154.68-17.07 155.14-18.06L155.14-18.06L155.14-18.06Q155.61-19.05 156.52-19.79L156.52-19.79L156.52-19.79Q157.44-20.52 158.77-20.94L158.77-20.94L158.77-20.94Q160.11-21.36 161.82-21.36L161.82-21.36L161.82-21.36Q163.68-21.36 165.15-20.98L165.15-20.98L165.15-20.98Q166.62-20.61 168.06-19.92L168.06-19.92L167.01-17.49L167.01-17.49Q165.99-18.09 164.63-18.50L164.63-18.50L164.63-18.50Q163.26-18.90 161.76-18.90L161.76-18.90L161.76-18.90Q159.78-18.90 158.64-18.13L158.64-18.13L158.64-18.13Q157.50-17.37 157.50-16.11L157.50-16.11L157.50-16.11Q157.50-15.51 157.66-15.04L157.66-15.04L157.66-15.04Q157.83-14.58 158.32-14.14L158.32-14.14L158.32-14.14Q158.82-13.71 159.70-13.26L159.70-13.26L159.70-13.26Q160.59-12.81 162.06-12.27L162.06-12.27L162.06-12.27Q163.80-11.61 165-10.92L165-10.92L165-10.92Q166.20-10.23 166.92-9.45L166.92-9.45L166.92-9.45Q167.64-8.67 167.95-7.77L167.95-7.77L167.95-7.77Q168.27-6.87 168.27-5.79L168.27-5.79L168.27-5.79Q168.27-4.32 167.70-3.18L167.70-3.18L167.70-3.18Q167.13-2.04 166.13-1.24L166.13-1.24L166.13-1.24Q165.12-0.45 163.71-0.04L163.71-0.04L163.71-0.04Q162.30 0.36 160.65 0.36L160.65 0.36L160.65 0.36Q158.46 0.36 156.66-0.22L156.66-0.22L156.66-0.22Q154.86-0.81 153.63-1.77L153.63-1.77" fill="#353535" stroke="none" stroke-width="none" transform="translate(-105.98996639251709,7.937252215147018)" style="transform:matrix(1, 0, 0, 1, -105.99, 7.93725);fill:rgb(53, 53, 53);animation-play-state:paused" ></path></g>
<g class="path" style="transform-origin:73.11px 0.137252px;animation-timing-function:linear;animation-play-state:paused;animation-name:static-f69b27c0-2a74-4cb6-8054-f6402bbf1c77;animation-iteration-count:infinite;animation-fill-mode:forwards;animation-duration:1s;animation-delay:-0.055s" ><path d="M171.12-7.71L171.12-7.71L171.12-7.71Q171.12-9.45 171.66-10.96L171.66-10.96L171.66-10.96Q172.20-12.48 173.17-13.59L173.17-13.59L173.17-13.59Q174.15-14.70 175.51-15.33L175.51-15.33L175.51-15.33Q176.88-15.96 178.50-15.96L178.50-15.96L178.50-15.96Q179.85-15.96 180.94-15.49L180.94-15.49L180.94-15.49Q182.04-15.03 182.85-14.34L182.85-14.34L182.85-15.60L185.31-15.60L185.31-3.78L185.31-3.78Q185.31-2.64 185.86-2.29L185.86-2.29L185.86-2.29Q186.42-1.95 187.08-1.95L187.08-1.95L186.51 0.15L186.51 0.15Q183.63 0.15 183.03-2.19L183.03-2.19L183.03-2.19Q182.67-1.71 182.20-1.24L182.20-1.24L182.20-1.24Q181.74-0.78 181.14-0.42L181.14-0.42L181.14-0.42Q180.54-0.06 179.79 0.15L179.79 0.15L179.79 0.15Q179.04 0.36 178.14 0.36L178.14 0.36L178.14 0.36Q176.67 0.36 175.39-0.21L175.39-0.21L175.39-0.21Q174.12-0.78 173.17-1.83L173.17-1.83L173.17-1.83Q172.23-2.88 171.67-4.37L171.67-4.37L171.67-4.37Q171.12-5.85 171.12-7.71zM178.74-2.04L178.74-2.04L178.74-2.04Q179.88-2.04 180.90-2.58L180.90-2.58L180.90-2.58Q181.92-3.12 182.61-3.99L182.61-3.99L182.61-12.36L182.61-12.36Q181.80-12.93 180.82-13.28L180.82-13.28L180.82-13.28Q179.85-13.62 178.77-13.62L178.77-13.62L178.77-13.62Q177.69-13.62 176.79-13.20L176.79-13.20L176.79-13.20Q175.89-12.78 175.24-12.01L175.24-12.01L175.24-12.01Q174.60-11.25 174.24-10.17L174.24-10.17L174.24-10.17Q173.88-9.09 173.88-7.80L173.88-7.80L173.88-7.80Q173.88-6.54 174.24-5.47L174.24-5.47L174.24-5.47Q174.60-4.41 175.26-3.65L175.26-3.65L175.26-3.65Q175.92-2.88 176.80-2.46L176.80-2.46L176.80-2.46Q177.69-2.04 178.74-2.04" fill="#353535" stroke="none" stroke-width="none" transform="translate(-105.98996639251709,7.937252215147018)" style="transform:matrix(1, 0, 0, 1, -105.99, 7.93725);fill:rgb(53, 53, 53);animation-play-state:paused" ></path></g>
<g class="path" style="transform-origin:96.09px -0.042748px;animation-timing-function:linear;animation-play-state:paused;animation-name:static-f69b27c0-2a74-4cb6-8054-f6402bbf1c77;animation-iteration-count:infinite;animation-fill-mode:forwards;animation-duration:1s" ><path d="M193.29-15.60L193.29-12.99L193.29-12.99Q194.13-14.25 195.40-15.10L195.40-15.10L195.40-15.10Q196.68-15.96 198.36-15.96L198.36-15.96L198.36-15.96Q200.22-15.96 201.39-15.07L201.39-15.07L201.39-15.07Q202.56-14.19 203.07-12.66L203.07-12.66L203.07-12.66Q204.00-14.04 205.27-15L205.27-15L205.27-15Q206.55-15.96 208.44-15.96L208.44-15.96L208.44-15.96Q209.70-15.96 210.64-15.54L210.64-15.54L210.64-15.54Q211.59-15.12 212.22-14.35L212.22-14.35L212.22-14.35Q212.85-13.59 213.16-12.53L213.16-12.53L213.16-12.53Q213.48-11.46 213.48-10.17L213.48-10.17L213.48 0L210.78 0L210.78-9.96L210.78-9.96Q210.78-11.58 210.03-12.58L210.03-12.58L210.03-12.58Q209.28-13.59 207.96-13.59L207.96-13.59L207.96-13.59Q207.27-13.59 206.64-13.32L206.64-13.32L206.64-13.32Q206.01-13.05 205.44-12.58L205.44-12.58L205.44-12.58Q204.87-12.12 204.36-11.50L204.36-11.50L204.36-11.50Q203.85-10.89 203.43-10.23L203.43-10.23L203.43 0L200.73 0L200.73-9.96L200.73-9.96Q200.73-11.58 199.98-12.58L199.98-12.58L199.98-12.58Q199.23-13.59 197.91-13.59L197.91-13.59L197.91-13.59Q197.25-13.59 196.62-13.33L196.62-13.33L196.62-13.33Q195.99-13.08 195.40-12.63L195.40-12.63L195.40-12.63Q194.82-12.18 194.31-11.58L194.31-11.58L194.31-11.58Q193.80-10.98 193.38-10.32L193.38-10.32L193.38 0L190.68 0L190.68-15.60L193.29-15.60" fill="#353535" stroke="none" stroke-width="none" transform="translate(-105.98996639251709,7.937252215147018)" style="transform:matrix(1, 0, 0, 1, -105.99, 7.93725);fill:rgb(53, 53, 53);animation-play-state:paused" ></path></g></g></g></g></svg>